<svg xmlns="http://www.w3.org/2000/svg" viewBox="0 0 308.05 124.35"><defs><style>.cls-1{fill:#ef8678;}</style></defs><g id="Layer_2" data-name="Layer 2"><g id="Layer_1-2" data-name="Layer 1"><path class="cls-1" d="M43.42,42.91a9.6,9.6,0,0,0,2.28,3.27c1,1,1.56,1.8,1.56,2.42v.26q0,1.26-1.59,1.26H28.53Q27,50.12,27,48.86V48.6A2.24,2.24,0,0,1,28,47a9.5,9.5,0,0,0,1.66-1.82,2.42,2.42,0,0,0,.23-2.31L28.4,38.8H11.58l-1.45,4.11a2.42,2.42,0,0,0,.23,2.31A9.44,9.44,0,0,0,12,47a2.24,2.24,0,0,1,1,1.56v.26q0,1.26-1.59,1.26H1.59Q0,50.12,0,48.86V48.6c0-.57.52-1.37,1.56-2.38a10,10,0,0,0,2.28-3.31l12.38-32a2.66,2.66,0,0,0-.17-2.32A14.93,14.93,0,0,0,14.59,6.3a3.09,3.09,0,0,1-.82-1.65V4.39c0-.84.5-1.26,1.52-1.26h8.47A4.65,4.65,0,0,1,28.33,6.3ZM13.37,33.84H26.61L20,15.37Z"/><path class="cls-1" d="M84.33,42.91a6.56,6.56,0,0,0,1.25,3.27,5.1,5.1,0,0,1,1.13,2.49v.26q0,1.26-1.59,1.26H71.88q-1.59,0-1.59-1.26v-.26a5,5,0,0,1,1.26-2.45,4.84,4.84,0,0,0,1.13-3.31L72,31.06c-.17-3.27-.6-5.58-1.29-6.95a3.41,3.41,0,0,0-3.27-2.05,3.54,3.54,0,0,0-3.21,1.72,8.69,8.69,0,0,0-1.1,4.7V42.91a5.07,5.07,0,0,0,1.46,3.31,4.79,4.79,0,0,1,1.46,2.45v.26q0,1.26-1.59,1.26H50.17q-1.59,0-1.59-1.26v-.26A4.79,4.79,0,0,1,50,46.22a5.07,5.07,0,0,0,1.46-3.31v-13a3.37,3.37,0,0,0-.87-2.35,13.48,13.48,0,0,0-1.75-1.66A1.93,1.93,0,0,1,48,24.37v-.19c0-.58.53-1.13,1.59-1.66L58.84,18a1.85,1.85,0,0,1,1.89,0,1.94,1.94,0,0,1,.63,1.62v3.11q2.78-5,9.46-5a12.28,12.28,0,0,1,8.54,3.24q3.57,3.24,4.1,10.53Z"/><path class="cls-1" d="M125.1,42.91a6.56,6.56,0,0,0,1.25,3.27,5.1,5.1,0,0,1,1.13,2.49v.26q0,1.26-1.59,1.26H112.65q-1.59,0-1.59-1.26v-.26a5,5,0,0,1,1.26-2.45,4.8,4.8,0,0,0,1.13-3.31l-.66-11.85c-.18-3.27-.61-5.58-1.3-6.95a3.41,3.41,0,0,0-3.27-2.05A3.56,3.56,0,0,0,105,23.78a8.7,8.7,0,0,0-1.09,4.7V42.91a5.06,5.06,0,0,0,1.45,3.31,4.79,4.79,0,0,1,1.46,2.45v.26q0,1.26-1.59,1.26H90.94q-1.59,0-1.59-1.26v-.26a4.79,4.79,0,0,1,1.46-2.45,5.07,5.07,0,0,0,1.46-3.31v-13a3.4,3.4,0,0,0-.86-2.35,14.21,14.21,0,0,0-1.76-1.66,1.93,1.93,0,0,1-.89-1.49v-.19c0-.58.53-1.13,1.59-1.66L99.61,18a1.85,1.85,0,0,1,1.89,0,1.94,1.94,0,0,1,.63,1.62v3.11q2.78-5,9.46-5a12.28,12.28,0,0,1,8.54,3.24q3.57,3.24,4.11,10.53Z"/><path class="cls-1" d="M161.37,42.91a6.58,6.58,0,0,0,.76,2.55,3,3,0,0,0,1.12,1.22,4.76,4.76,0,0,1,1,.66,1.26,1.26,0,0,1,.46,1q0,2.19-7.48,2.19a10.68,10.68,0,0,1-4.53-.73,3.46,3.46,0,0,1-1.89-2.45c-1.67,2.3-4.47,3.44-8.4,3.44a14.79,14.79,0,0,1-9-2.58,8.75,8.75,0,0,1-3.47-7.48,8.91,8.91,0,0,1,3.44-7.44,13.34,13.34,0,0,1,8.47-2.68,12.89,12.89,0,0,1,6.69,1.65v-.2A44.48,44.48,0,0,0,147,23.18a3.15,3.15,0,0,0-3.21-2.31,2.82,2.82,0,0,0-2.45,1.39,9.94,9.94,0,0,0-1.36,3,7.62,7.62,0,0,1-1.62,3,4,4,0,0,1-3.18,1.39,4.71,4.71,0,0,1-3.34-1.19,4,4,0,0,1-1.29-3.11q0-3.84,3.84-5.79a20.58,20.58,0,0,1,9.4-1.95,16.52,16.52,0,0,1,10.95,3.61,14.6,14.6,0,0,1,5.13,9.76Zm-15.29,4.5A2.88,2.88,0,0,0,148.56,46a5.87,5.87,0,0,0,1-3.31l-.27-3c-.44-3.67-1.8-5.5-4.1-5.5a2.93,2.93,0,0,0-2.45,1.23,5.27,5.27,0,0,0-.92,3.27,15.12,15.12,0,0,0,1.15,6.26C143.71,46.56,144.75,47.41,146.08,47.41Z"/><path class="cls-1" d="M187.31,17.69a15.91,15.91,0,0,1,10.89,4.2q4.74,4.2,4.73,11.75T198.33,46a14.79,14.79,0,0,1-11,4.76,11.28,11.28,0,0,1-8-2.91v.6a1.52,1.52,0,0,1-1.72,1.72l-10-.07c-1,0-1.52-.42-1.52-1.26V48.6a4.78,4.78,0,0,1,1.32-2.42,5.24,5.24,0,0,0,1.32-3.34V12.72a4.37,4.37,0,0,0-1.62-3.21Q165.47,8,165.47,7.23V7c0-.71.6-1.33,1.79-1.86L177.45.41a2.49,2.49,0,0,1,2.19-.26,1.73,1.73,0,0,1,.92,1.79V19.67A10.79,10.79,0,0,1,187.31,17.69Zm-1.06,29.85q5,0,5-8.34a50.49,50.49,0,0,0-.63-7.94,23.87,23.87,0,0,0-2.25-7.15q-1.64-3.18-3.88-3.18a3.37,3.37,0,0,0-2.88,1.56,7.37,7.37,0,0,0-1.09,4.27V39.6a9.19,9.19,0,0,0,1.76,5.49Q184.08,47.54,186.25,47.54Z"/><path class="cls-1" d="M233.12,39.66a1.49,1.49,0,0,1,1.62-.43,1.21,1.21,0,0,1,.83,1.36q-.13,3.31-3.84,6.75a13.53,13.53,0,0,1-9.6,3.44,15.8,15.8,0,0,1-11.78-4.63q-4.57-4.63-4.57-12.11a15.56,15.56,0,0,1,4.8-11.75,16,16,0,0,1,11.48-4.6q6,0,9.34,2.78a8.12,8.12,0,0,1,3.31,6.29,4.34,4.34,0,0,1-2.59,4.1L219,38.27a8.49,8.49,0,0,0,7.55,4.31,9.25,9.25,0,0,0,3.87-.83A6.85,6.85,0,0,0,233.12,39.66ZM220.87,20.93a3.66,3.66,0,0,0-3.21,2,9.26,9.26,0,0,0-1.22,5,22,22,0,0,0,1,7l6.15-3.7a3.88,3.88,0,0,0,1.73-3.38,10.48,10.48,0,0,0-1.1-4.5A3.53,3.53,0,0,0,220.87,20.93Z"/><path class="cls-1" d="M239.6,50.12c-1,0-1.52-.42-1.52-1.26V48.6a4.82,4.82,0,0,1,1.29-2.42,5.23,5.23,0,0,0,1.29-3.27V12.66a5.31,5.31,0,0,0-1.29-3.34A5,5,0,0,1,238.08,7V6.77c0-.49.49-1,1.46-1.52l10-4.9a2.41,2.41,0,0,1,2.22-.1,1.63,1.63,0,0,1,.83,1.49V42.91A4.91,4.91,0,0,0,254,46.18a4.67,4.67,0,0,1,1.46,2.42v.26q0,1.26-1.59,1.26Z"/><path class="cls-1" d="M259.66,50.12q-1.53,0-1.53-1.26V48.6a4.86,4.86,0,0,1,1.3-2.42,5.23,5.23,0,0,0,1.29-3.27V12.66a5.31,5.31,0,0,0-1.29-3.34A5.08,5.08,0,0,1,258.13,7V6.77c0-.49.49-1,1.46-1.52l10-4.9a2.39,2.39,0,0,1,2.21-.1,1.63,1.63,0,0,1,.83,1.49V42.91a4.92,4.92,0,0,0,1.46,3.27,4.62,4.62,0,0,1,1.45,2.42v.26q0,1.26-1.59,1.26Z"/><path class="cls-1" d="M305.59,39.66a1.5,1.5,0,0,1,1.62-.43,1.2,1.2,0,0,1,.83,1.36q-.14,3.31-3.84,6.75a13.52,13.52,0,0,1-9.6,3.44,15.82,15.82,0,0,1-11.78-4.63q-4.56-4.63-4.56-12.11a15.56,15.56,0,0,1,4.79-11.75,16,16,0,0,1,11.49-4.6q6,0,9.33,2.78a8.09,8.09,0,0,1,3.31,6.29,4.33,4.33,0,0,1-2.58,4.1l-13.17,7.41A8.47,8.47,0,0,0,299,42.58a9.25,9.25,0,0,0,3.87-.83A6.78,6.78,0,0,0,305.59,39.66ZM293.35,20.93a3.64,3.64,0,0,0-3.21,2,9.26,9.26,0,0,0-1.23,5,21.73,21.73,0,0,0,1,7l6.15-3.7a3.87,3.87,0,0,0,1.72-3.38,10.46,10.46,0,0,0-1.09-4.5A3.53,3.53,0,0,0,293.35,20.93Z"/><path class="cls-1" d="M13.9,110.12c-1,0-1.52-.42-1.52-1.26v-.26a4.65,4.65,0,0,1,1.42-2.42,5,5,0,0,0,1.42-3.27V68.09h-3.5A3.74,3.74,0,0,0,9,69.35,9.76,9.76,0,0,0,7.05,72.1a13.64,13.64,0,0,1-1.69,2.74,2.68,2.68,0,0,1-2,1.26H2.25Q.39,76.1.6,74.18l1.32-9a2,2,0,0,1,2.25-2.05h34a2.07,2.07,0,0,1,2.25,2.05l1.39,9.07a1.52,1.52,0,0,1-.33,1.35,1.73,1.73,0,0,1-1.32.5H39.05a2.68,2.68,0,0,1-2-1.26,14.77,14.77,0,0,1-1.73-2.74,10,10,0,0,0-2-2.75,3.87,3.87,0,0,0-2.78-1.26H27.14v34.82a5,5,0,0,0,1.42,3.27A4.65,4.65,0,0,1,30,108.6v.26c0,.84-.53,1.26-1.58,1.26Z"/><path class="cls-1" d="M70,102.91a6.75,6.75,0,0,0,.76,2.55,3,3,0,0,0,1.13,1.22,5,5,0,0,1,1,.66,1.27,1.27,0,0,1,.47,1c0,1.46-2.5,2.19-7.48,2.19a10.76,10.76,0,0,1-4.54-.73,3.42,3.42,0,0,1-1.88-2.45c-1.68,2.3-4.48,3.44-8.41,3.44a14.76,14.76,0,0,1-9-2.58,8.73,8.73,0,0,1-3.48-7.48A8.91,8.91,0,0,1,42,93.28a13.37,13.37,0,0,1,8.48-2.68,12.85,12.85,0,0,1,6.68,1.65v-.2a44.48,44.48,0,0,0-1.49-8.87,3.15,3.15,0,0,0-3.21-2.31A2.83,2.83,0,0,0,50,82.26a9.68,9.68,0,0,0-1.35,3,7.52,7.52,0,0,1-1.63,3,4,4,0,0,1-3.17,1.39,4.72,4.72,0,0,1-3.35-1.19,4,4,0,0,1-1.29-3.11q0-3.84,3.84-5.79a20.58,20.58,0,0,1,9.4-2,16.54,16.54,0,0,1,11,3.61,14.6,14.6,0,0,1,5.13,9.76Zm-15.29,4.5A2.87,2.87,0,0,0,57.15,106a5.87,5.87,0,0,0,1-3.31l-.26-3q-.66-5.5-4.1-5.5a2.9,2.9,0,0,0-2.45,1.23,5.27,5.27,0,0,0-.93,3.27,15.11,15.11,0,0,0,1.16,6.26C52.3,106.56,53.35,107.41,54.67,107.41Z"/><path class="cls-1" d="M107.29,78.35c1,0,1.52.42,1.52,1.26v.26a4.89,4.89,0,0,1-1.49,2.72,12.43,12.43,0,0,0-2.08,3.11L92.73,112.64a40.54,40.54,0,0,1-1.82,3.67A37.56,37.56,0,0,1,88.46,120a11.39,11.39,0,0,1-3.67,3.24,9.33,9.33,0,0,1-4.57,1.16A11.91,11.91,0,0,1,72.64,122a6.75,6.75,0,0,1-2.94-5.37A4.58,4.58,0,0,1,71,113.3,4.66,4.66,0,0,1,74.4,112a4.28,4.28,0,0,1,3.4,1.39,6.23,6.23,0,0,1,1.53,3,13.88,13.88,0,0,0,.89,3c.4.93.93,1.39,1.59,1.39q2.58,0,6.22-8.6L74.59,85.7a16,16,0,0,0-2.21-3.08,4.74,4.74,0,0,1-1.49-2.75v-.26c0-.84.5-1.26,1.52-1.26H86.64c1,0,1.46.44,1.46,1.32v.27a2.77,2.77,0,0,1-.6,1.52,5.21,5.21,0,0,0-.79,1.59,5.86,5.86,0,0,0,.46,2.78l6.75,15.89L100,87c.49-1.64.5-2.77,0-3.41a10.61,10.61,0,0,0-1.92-2c-.81-.66-1.22-1.21-1.22-1.65v-.27c0-.88.51-1.32,1.52-1.32Z"/><path class="cls-1" d="M111.33,110.12c-1,0-1.52-.42-1.52-1.26v-.26a4.82,4.82,0,0,1,1.29-2.42,5.23,5.23,0,0,0,1.29-3.27V72.66a5.31,5.31,0,0,0-1.29-3.34A5,5,0,0,1,109.81,67v-.26c0-.49.48-1,1.45-1.52l10-4.9a2.39,2.39,0,0,1,2.21-.1,1.61,1.61,0,0,1,.83,1.49v41.17a4.92,4.92,0,0,0,1.46,3.27,4.62,4.62,0,0,1,1.45,2.42v.26c0,.84-.52,1.26-1.58,1.26Z"/><path class="cls-1" d="M148.2,110.78a18.87,18.87,0,0,1-13-4.73,15.87,15.87,0,0,1,0-23.7,18.38,18.38,0,0,1,12.57-4.66,18.68,18.68,0,0,1,12.84,4.7,16.07,16.07,0,0,1,.14,23.73A18,18,0,0,1,148.2,110.78Zm1.39-3.24q4.23,0,4.23-8.14a36.54,36.54,0,0,0-.82-7.08,28,28,0,0,0-2.79-7.75c-1.3-2.42-2.74-3.64-4.33-3.64a3.41,3.41,0,0,0-3.31,2,15,15,0,0,0-1,6.23,29.46,29.46,0,0,0,.53,5.16,49.62,49.62,0,0,0,1.45,6,15.94,15.94,0,0,0,2.55,5.1A4.52,4.52,0,0,0,149.59,107.54Z"/><path class="cls-1" d="M191.15,77.69a5.86,5.86,0,0,1,4.54,1.85,6.74,6.74,0,0,1,1.68,4.7q0,6.23-5.09,6.22a4.47,4.47,0,0,1-3.11-1,3.51,3.51,0,0,1-1.23-2.15,6.24,6.24,0,0,0-.69-2.15,1.72,1.72,0,0,0-1.59-1q-2.44,0-2.45,6.36v12.31a4.55,4.55,0,0,0,1.75,3.27c1.17,1.08,1.76,1.89,1.76,2.42v.26q0,1.26-1.59,1.26H170.9q-1.59,0-1.59-1.26v-.26a4.78,4.78,0,0,1,1.32-2.42,5.13,5.13,0,0,0,1.33-3.27V89.73a3.35,3.35,0,0,0-.8-2.25,13.89,13.89,0,0,0-1.59-1.58,1.89,1.89,0,0,1-.79-1.46v-.2c0-.75.51-1.39,1.52-1.92L179.64,78c.88-.31,1.49-.33,1.85-.06a1.81,1.81,0,0,1,.53,1.52v4.83Q184.27,77.69,191.15,77.69Z"/></g></g></svg>